# xmcd
#
# Track frame offsets: 
#        150
#        20038
#        42736
#        63275
#        78211
#        101913
#        124297
#        154257
#        168066
#        201460
#        221812
#        236632
#        257149
#
# Disc length: 3793 seconds
#
# Revision: 1
# Processed by: cddbd v1.5.2PL0 Copyright (c) Steve Scherf et al.
# Submitted via: ExactAudioCopy v0.95b4
#
DISCID=c00ecf0d
DTITLE=Various Artist - New Age New Sounds
DYEAR=2006
DGENRE=New Age
TTITLE0=Mandarava And Miyagi - Asian Lights
TTITLE1=Patrick Kelly - Adrift InTime
TTITLE2=Spyritual - On My Way To Nowhere
TTITLE3=Patrizio Trampetti - Incontri
TTITLE4=Daniele Di Bonaventura - La Mia Terra
TTITLE5=Alessandro Gwis - Which Was It
TTITLE6=Capitanata - Oriantal Night Garden
TTITLE7=Marcotr - The Japanese Emperors Nightngale
TTITLE8=Davide Ravasio - Montezuma
TTITLE9=Roberto Speranzini - Jump For You
TTITLE10=Mark Konstabi Ft. Tao - Distant Past Remix
TTITLE11=Sempre 14 - Sempreroper
TTITLE12=Mandarava And Miyagi - Atma
EXTD=YEAR: 2006
EXTT0=
EXTT1=
EXTT2=
EXTT3=
EXTT4=
EXTT5=
EXTT6=
EXTT7=
EXTT8=
EXTT9=
EXTT10=
EXTT11=
EXTT12=
PLAYORDER=
